<svg xmlns="http://www.w3.org/2000/svg" width="22" height="18" viewBox="0 0 22 18">
    <g fill="none" fill-rule="evenodd">
        <path d="M-1-3h24v24H-1z"/>
        <path fill="#9FA6B0" d="M14.69.852l-1.177.554L9.81 3.149c-.995.469-2.372.85-3.059.85H5.5v8h1.25c.074 0 .16.008.25.016V16c0 1.1.9 2 2 2s2-.9 2-2v-2.587l3.69 1.736c.995.469 1.81-.05 1.81-1.15V2c0-1.098-.815-1.615-1.81-1.147zm4.517 4.355l1-1a1 1 0 0 0-1.414-1.414l-1 1a.999.999 0 1 0 1.414 1.414zm1 8a1 1 0 0 0 0-1.414l-1-1a1 1 0 0 0-1.414 1.414l1 1a.996.996 0 0 0 1.414 0zM22 8a1 1 0 0 0-1-1h-2a1 1 0 1 0 0 2h2a1 1 0 0 0 1-1zM3.9 11.8a3.8 3.8 0 1 1 0-7.6v7.6z"/>
    </g>
</svg>
